<svg width="52" height="52" viewBox="0 0 52 52" fill="none" xmlns="http://www.w3.org/2000/svg">
<path d="M26 3.25C32.0337 3.25 37.8202 5.64687 42.0867 9.91332C46.3531 14.1798 48.75 19.9663 48.75 26V42.25C48.75 43.9739 48.0652 45.6272 46.8462 46.8462C45.6272 48.0652 43.9739 48.75 42.25 48.75H35.75C34.888 48.75 34.0614 48.4076 33.4519 47.7981C32.8424 47.1886 32.5 46.362 32.5 45.5V32.5C32.5 31.638 32.8424 30.8114 33.4519 30.2019C34.0614 29.5924 34.888 29.25 35.75 29.25H42.25V26C42.25 21.6902 40.538 17.557 37.4905 14.5095C34.443 11.462 30.3098 9.75 26 9.75C21.6902 9.75 17.557 11.462 14.5095 14.5095C11.462 17.557 9.75 21.6902 9.75 26V29.25H16.25C17.112 29.25 17.9386 29.5924 18.5481 30.2019C19.1576 30.8114 19.5 31.638 19.5 32.5V45.5C19.5 46.362 19.1576 47.1886 18.5481 47.7981C17.9386 48.4076 17.112 48.75 16.25 48.75H9.75C8.02609 48.75 6.37279 48.0652 5.15381 46.8462C3.93482 45.6272 3.25 43.9739 3.25 42.25V26C3.25 19.9663 5.64687 14.1798 9.91332 9.91332C14.1798 5.64687 19.9663 3.25 26 3.25Z" fill="black"/>
</svg>
